<?xml version="1.0" standalone="no"?>
<!DOCTYPE svg PUBLIC "-//W3C//DTD SVG 20010904//EN"
 "http://www.w3.org/TR/2001/REC-SVG-20010904/DTD/svg10.dtd">
<svg version="1.0" xmlns="http://www.w3.org/2000/svg"
 width="1920.000000pt" height="1920.000000pt" viewBox="0 0 1920.000000 1920.000000"
 preserveAspectRatio="xMidYMid meet">
<metadata>
Created by potrace 1.14, written by Peter Selinger 2001-2017
</metadata>
<g transform="translate(0.000000,1920.000000) scale(0.100000,-0.100000)"
fill="#000000" stroke="none">
<path d="M1899 12713 c-13 -16 -12 -17 4 -4 16 13 21 21 13 21 -2 0 -10 -8
-17 -17z"/>
<path d="M1869 12673 c-13 -16 -12 -17 4 -4 16 13 21 21 13 21 -2 0 -10 -8
-17 -17z"/>
<path d="M1802 12578 c-267 -398 -492 -963 -492 -1236 0 -87 10 -125 42 -159
19 -20 219 -117 958 -463 416 -195 372 -174 1140 -535 360 -169 691 -324 735
-345 44 -21 303 -142 575 -270 272 -128 565 -265 650 -305 85 -40 454 -213
820 -385 366 -172 692 -324 725 -337 33 -14 67 -31 75 -37 23 -20 384 -186
403 -186 10 0 26 18 38 43 12 23 23 43 24 45 5 6 125 -69 204 -128 78 -58 130
-105 337 -301 55 -52 132 -120 170 -150 65 -52 185 -134 206 -141 6 -2 3 -29
-7 -62 -33 -112 2 -213 86 -257 89 -45 178 -19 267 76 78 82 98 75 52 -19 -27
-54 -32 -74 -27 -112 9 -83 95 -164 174 -164 62 0 105 21 172 85 32 30 60 55
63 55 3 0 9 -15 12 -34 14 -76 97 -146 173 -146 50 0 106 24 153 67 45 40 50
42 75 31 18 -8 24 -16 19 -27 -27 -67 -22 -117 16 -170 51 -73 135 -79 261
-20 l74 35 59 -24 c131 -53 275 -67 332 -32 38 24 74 92 74 142 0 36 -47 113
-75 125 -19 7 -20 23 -1 23 7 0 52 -18 100 -40 194 -90 335 -106 402 -48 90
79 99 203 20 277 -32 30 -32 37 -1 45 17 4 56 -5 119 -28 161 -61 251 -63 308
-10 65 61 84 148 48 219 -15 30 -17 41 -7 47 17 11 25 10 81 -7 27 -8 65 -15
85 -15 60 0 117 45 135 106 6 19 3 21 -19 16 -17 -3 -44 5 -73 20 -26 14 -87
38 -136 53 -48 15 -116 42 -150 59 -93 49 -220 118 -231 127 -5 4 -53 32 -105
61 -52 30 -187 112 -300 183 -326 203 -386 228 -475 190 -80 -33 -62 -53 208
-223 233 -147 264 -168 505 -346 242 -178 326 -264 307 -314 -6 -15 -43 -12
-155 15 -62 14 -600 277 -702 342 -24 15 -88 56 -143 91 -111 72 -195 109
-240 110 -36 0 -91 -19 -123 -41 -30 -22 -34 -69 -7 -83 44 -24 179 -120 330
-236 195 -150 220 -167 367 -254 164 -97 248 -175 248 -231 0 -20 -54 -20
-128 1 -82 23 -460 211 -672 334 -115 66 -243 130 -263 130 -27 0 -117 41
-112 50 3 5 -4 11 -15 15 -11 3 -20 11 -20 17 0 6 -3 9 -6 5 -3 -3 -15 2 -26
13 -12 11 -33 17 -53 16 -18 -1 -31 3 -27 8 3 5 -2 7 -11 3 -10 -4 -17 -1 -17
6 0 7 -3 8 -8 2 -8 -12 -22 -12 -77 0 -22 5 -52 9 -67 8 -18 0 -25 4 -21 13 5
14 2 15 -47 18 -14 0 -28 5 -31 9 -3 5 -12 9 -20 11 -8 1 -27 9 -44 18 -16 9
-45 19 -62 23 -18 3 -33 11 -33 16 0 5 -3 8 -7 8 -5 -1 -21 -1 -38 0 -23 1
-27 3 -15 11 12 7 8 10 -15 11 -16 0 -41 3 -55 5 -14 3 -33 5 -42 6 -9 1 -15
5 -12 9 4 7 -92 25 -108 21 -5 -1 -8 3 -8 9 0 5 -4 7 -10 4 -5 -3 -10 -2 -10
3 0 6 -10 12 -23 16 -13 3 -41 17 -61 31 -21 14 -51 27 -66 28 -16 1 -26 4
-24 6 2 2 -9 14 -25 25 -15 12 -29 26 -30 31 -1 6 -9 9 -17 7 -9 -2 -24 6 -33
17 -10 11 -21 17 -25 13 -4 -4 -6 -2 -4 3 5 16 -25 51 -50 59 -13 5 -21 10
-19 13 9 9 -33 44 -44 37 -7 -4 -9 1 -4 15 4 14 2 21 -6 21 -13 0 -69 58 -69
72 0 4 -10 8 -22 8 -13 0 -33 13 -47 30 -13 17 -29 30 -37 30 -8 0 -13 4 -12
8 2 5 -13 22 -32 38 -19 16 -39 34 -43 41 -4 7 -14 13 -21 13 -17 0 -66 42
-66 57 0 7 -6 16 -13 20 -26 16 -29 35 -41 230 -5 90 -16 85 -87 -43 -33 -61
-43 -72 -64 -70 -14 0 -27 7 -30 14 -2 6 -11 12 -20 12 -8 0 -15 5 -15 11 0 5
-4 7 -10 4 -5 -3 -10 -1 -10 4 0 6 -11 11 -24 11 -13 0 -27 7 -30 16 -3 8 -10
12 -16 9 -5 -3 -10 -2 -10 4 0 6 -19 16 -42 23 -24 7 -49 18 -57 26 -7 7 -20
11 -27 8 -8 -3 -14 -1 -14 3 0 11 -76 52 -83 45 -8 -9 2 56 13 76 5 10 10 22
10 27 -1 4 -12 -13 -26 -39 -13 -27 -29 -48 -34 -48 -17 0 -80 34 -80 43 0 5
-6 7 -14 4 -8 -3 -20 1 -26 9 -7 8 -19 14 -26 14 -8 0 -14 5 -14 10 0 6 -8 10
-17 8 -11 -2 -17 2 -15 10 1 8 -2 11 -7 8 -5 -4 -12 -2 -16 4 -4 6 -11 8 -16
5 -5 -4 -9 -2 -9 4 0 6 -7 8 -15 5 -8 -4 -15 -1 -15 6 0 6 -4 8 -10 5 -6 -3
-10 -2 -10 2 0 13 -92 57 -114 54 -11 -2 -16 2 -12 8 5 7 -3 11 -18 11 -14 0
-26 3 -26 8 0 4 -9 13 -21 20 -17 11 -20 11 -13 0 5 -9 2 -8 -12 2 -32 25 -63
40 -83 40 -10 0 -22 7 -25 16 -4 9 -13 14 -21 10 -15 -6 -79 27 -70 36 2 2
-18 10 -45 17 -28 7 -48 17 -44 22 3 5 1 9 -5 9 -5 0 -22 5 -38 11 -15 6 -28
9 -28 8 0 -1 -10 3 -23 10 -12 7 -20 16 -17 21 3 6 0 7 -8 4 -8 -3 -18 -1 -21
5 -4 6 -13 8 -22 4 -9 -3 -14 0 -12 8 2 9 -4 13 -14 11 -10 -2 -18 2 -18 8 0
5 -7 10 -15 10 -8 0 -15 4 -15 10 0 5 -7 7 -14 4 -8 -3 -25 4 -37 15 -13 12
-30 21 -39 21 -8 0 -24 6 -35 14 -11 7 -22 14 -25 13 -17 -1 -49 16 -45 24 3
5 -1 6 -9 3 -9 -3 -16 -2 -16 4 0 9 -47 27 -62 24 -5 -1 -8 5 -8 13 0 13 -29
21 -45 13 -2 -2 -11 6 -20 17 -9 11 -14 14 -10 8 4 -9 1 -11 -9 -7 -9 3 -14
10 -11 14 3 4 -9 13 -25 19 -17 5 -30 7 -30 3 0 -4 -4 -2 -8 3 -10 14 -55 39
-47 26 3 -6 1 -11 -4 -11 -6 0 -11 7 -11 16 0 10 -6 14 -14 11 -8 -3 -17 1
-20 9 -3 8 -11 14 -18 14 -9 0 -8 -3 2 -10 8 -5 11 -10 5 -10 -5 0 -20 11 -33
25 -13 13 -30 21 -38 18 -7 -3 -14 0 -14 7 0 7 -7 10 -16 6 -8 -3 -12 -2 -9 4
3 6 -3 10 -13 10 -11 0 -25 7 -32 15 -14 17 -35 21 -25 5 3 -6 -1 -7 -9 -4 -9
3 -13 10 -10 15 3 5 -2 9 -10 9 -9 0 -16 4 -16 10 0 5 -3 9 -7 9 -24 -4 -45 4
-72 27 -17 14 -31 22 -31 18 0 -4 -10 1 -22 12 -12 10 -18 13 -14 7 5 -9 2
-11 -8 -7 -9 3 -16 10 -16 15 0 5 -4 9 -9 9 -5 0 -22 5 -38 11 -15 6 -29 10
-31 9 -1 0 -10 6 -18 15 -9 8 -22 15 -30 15 -8 0 -14 6 -14 13 0 8 -4 7 -10
-3 -6 -9 -10 -10 -10 -3 0 6 -13 18 -30 27 -16 8 -30 10 -30 6 0 -5 -7 -7 -16
-3 -13 5 -13 7 -2 14 9 6 6 9 -10 9 -13 0 -20 4 -17 10 3 6 -4 10 -18 10 -14
0 -30 7 -38 16 -7 8 -20 13 -29 11 -10 -2 -22 4 -29 15 -8 13 -19 18 -32 15
-10 -3 -19 -1 -19 4 0 4 -15 12 -32 17 -18 5 -32 14 -31 21 2 6 -8 11 -21 11
-13 0 -27 7 -30 16 -3 8 -11 12 -17 9 -5 -4 -19 1 -29 10 -10 9 -23 14 -29 10
-7 -3 -8 0 -5 9 4 11 0 16 -11 16 -9 0 -13 -4 -10 -10 3 -6 -1 -7 -9 -4 -9 3
-14 10 -11 14 3 4 -2 11 -11 14 -8 3 -12 2 -9 -4 7 -12 -53 20 -73 38 -8 7
-20 11 -27 9 -6 -3 -17 3 -23 14 -7 10 -18 16 -26 13 -7 -3 -16 2 -19 10 -4 9
-16 16 -27 16 -11 0 -20 4 -20 10 0 5 -7 6 -17 3 -11 -4 -14 -3 -9 5 5 8 -2
12 -23 12 -16 0 -36 7 -45 15 -8 8 -24 15 -37 15 -18 0 -19 2 -9 15 11 13 10
14 -5 9 -12 -5 -23 -1 -31 11 -8 10 -14 15 -14 9 0 -5 -5 -2 -10 6 -9 13 -10
13 -10 0 0 -13 -1 -13 -10 0 -5 8 -14 16 -20 16 -5 1 -14 2 -18 3 -5 0 -19 10
-32 21 -12 11 -26 18 -29 15 -4 -2 -20 7 -36 21 -15 13 -37 24 -48 24 -20 0
-87 36 -99 54 -5 7 -8 7 -8 -1 0 -7 -5 -13 -10 -13 -6 0 -9 5 -8 11 2 6 -8 13
-22 15 -13 3 -27 8 -30 13 -3 4 -13 7 -23 5 -9 -1 -15 2 -11 7 3 5 0 9 -5 9
-6 0 -11 8 -12 18 0 9 -3 12 -5 5 -3 -7 -12 -9 -20 -6 -7 3 -11 9 -9 14 3 5
-15 14 -39 20 -30 7 -43 15 -39 23 4 6 -2 4 -12 -4 -17 -14 -18 -13 -12 2 3
10 3 17 -1 16 -14 -3 -62 14 -58 21 3 4 -4 8 -15 9 -42 4 -49 6 -49 13 0 4 6
9 13 12 6 3 3 5 -8 5 -30 -1 -77 21 -70 32 3 6 -1 7 -9 4 -10 -4 -18 1 -22 11
-4 11 -9 13 -13 6 -5 -7 -15 -4 -29 9 -12 12 -22 16 -22 10 0 -6 -5 -8 -10 -5
-6 4 -7 11 -4 17 5 8 1 9 -10 5 -10 -4 -15 -3 -11 3 7 11 -26 29 -60 32 -18 2
-24 7 -20 17 3 9 3 12 -1 8 -4 -4 -13 -2 -20 4 -8 6 -21 8 -30 5 -13 -5 -14
-4 -6 7 9 10 8 14 -3 14 -8 0 -15 -7 -16 -16 0 -11 -4 -9 -11 7 -6 12 -20 22
-30 22 -11 0 -16 5 -13 10 3 6 1 10 -4 10 -6 0 -11 -5 -11 -10 0 -6 -6 -5 -14
2 -8 7 -12 16 -10 20 2 4 0 9 -6 13 -5 3 -10 2 -10 -3 0 -6 -9 -8 -20 -5 -11
3 -17 10 -13 16 4 6 0 8 -10 4 -10 -4 -20 0 -25 9 -5 9 -12 15 -15 15 -24 -3
-37 0 -32 9 4 6 3 10 -2 9 -21 -4 -54 2 -50 9 3 4 -1 13 -9 20 -10 9 -14 9
-14 1 0 -6 -9 -1 -21 12 -11 13 -18 18 -14 12 8 -17 -4 -16 -35 2 -15 9 -19
15 -10 15 13 1 13 2 -1 10 -8 5 -24 8 -35 6 -10 -2 -24 3 -29 11 -6 8 -20 15
-33 16 -12 0 -22 4 -22 8 0 4 -9 11 -20 14 -11 4 -18 11 -14 16 3 6 -4 8 -18
5 -13 -2 -32 2 -43 10 -10 8 -14 14 -9 14 6 0 14 -4 20 -10 5 -5 15 -5 23 -1
10 6 5 12 -18 24 -17 8 -31 11 -31 6 0 -5 -11 -3 -25 3 -14 6 -25 15 -25 19 0
5 -6 6 -14 3 -8 -3 -17 0 -22 7 -5 8 -3 10 6 4 9 -5 11 -4 6 4 -6 9 -11 9 -22
0 -12 -10 -13 -9 -8 5 5 12 2 15 -12 9 -11 -4 -15 -3 -10 5 4 7 -1 10 -13 7
-11 -2 -22 3 -25 10 -3 8 -13 14 -23 14 -40 1 -52 5 -50 15 1 6 -8 10 -20 8
-16 -2 -21 1 -17 11 2 7 -2 20 -11 27 -13 11 -14 10 -9 -5 5 -13 4 -16 -4 -11
-7 4 -12 14 -12 23 0 9 -3 13 -7 10 -8 -8 -55 20 -67 41 -7 12 -10 12 -17 1
-7 -11 -9 -11 -9 2 0 21 -24 31 -38 17 -7 -7 -14 -4 -23 9 -8 13 -20 19 -33
16 -18 -4 -19 -3 -6 7 12 9 10 11 -12 7 -16 -2 -26 0 -25 7 1 6 -5 11 -13 11
-8 0 -20 7 -27 15 -7 8 -13 12 -13 8 0 -5 -9 1 -20 12 -11 11 -28 20 -38 20
-11 0 -27 9 -37 20 -10 11 -27 20 -37 20 -10 0 -21 7 -24 15 -4 10 -13 13 -24
10 -10 -3 -22 0 -26 6 -5 9 -2 10 9 6 10 -4 14 -2 11 6 -6 16 -44 20 -44 5 0
-20 -13 1 -15 24 -1 12 -11 25 -23 29 -16 6 -20 5 -15 -7 3 -10 0 -12 -10 -8
-9 3 -18 12 -21 20 -4 10 -2 13 7 8 8 -6 8 -3 -1 9 -8 9 -22 19 -32 22 -10 3
-19 14 -18 23 0 9 -5 32 -10 50 -7 21 -7 32 -1 32 6 0 8 4 5 9 -5 8 16 70 60
173 35 81 117 233 170 316 29 45 52 82 49 82 -2 0 -26 -33 -53 -72z m7853
-4989 c380 -225 510 -312 570 -382 35 -41 53 -82 41 -94 -11 -12 -196 41 -256
73 -41 22 -191 90 -250 114 -243 98 -251 104 -278 213 -10 42 -14 77 -10 77 5
0 7 4 4 8 -3 5 4 15 15 23 12 8 28 19 37 26 13 9 21 9 37 -3 11 -7 52 -32 90
-55z m-205 -308 c19 -10 37 -26 38 -36 3 -14 -1 -16 -30 -10 -43 9 -109 46
-102 57 9 14 58 9 94 -11z"/>
<path d="M18293 11613 c-13 -2 -23 -9 -23 -14 0 -5 -6 -9 -13 -9 -7 0 -83 -35
-169 -79 -87 -43 -160 -76 -163 -73 -3 3 -5 1 -5 -5 0 -5 -18 -15 -40 -22 -22
-6 -40 -16 -40 -22 0 -6 -4 -8 -9 -4 -5 3 -12 1 -16 -4 -6 -11 -62 -41 -85
-46 -8 -2 -42 -19 -74 -39 -32 -19 -62 -33 -67 -31 -4 3 -9 2 -11 -3 -4 -10
-346 -178 -495 -243 -18 -8 -33 -17 -33 -21 0 -5 -8 -8 -18 -8 -9 0 -33 -11
-52 -24 -19 -12 -52 -29 -72 -35 -21 -7 -38 -16 -38 -19 0 -4 -28 -18 -62 -31
-35 -13 -74 -31 -88 -40 -14 -9 -36 -22 -50 -28 -14 -6 -70 -33 -125 -59 -55
-27 -102 -49 -105 -50 -29 -9 -70 -30 -70 -36 0 -4 -5 -8 -11 -8 -6 0 -33 -11
-59 -24 -27 -13 -50 -22 -53 -20 -2 2 -10 -2 -17 -11 -7 -8 -17 -15 -23 -15
-5 0 -53 -21 -106 -47 -53 -26 -98 -48 -101 -49 -3 -1 -15 -5 -27 -9 -13 -4
-23 -11 -23 -16 0 -5 -7 -9 -16 -9 -9 0 -31 -8 -48 -19 -17 -10 -57 -29 -88
-41 -32 -13 -58 -27 -58 -32 0 -4 -11 -8 -24 -8 -13 0 -29 -7 -36 -15 -7 -8
-16 -15 -20 -15 -4 0 -25 -8 -46 -17 -22 -9 -41 -17 -44 -18 -3 0 -11 -4 -17
-8 -7 -5 -13 -5 -13 -2 0 4 -12 -3 -26 -14 -15 -12 -33 -21 -40 -21 -8 0 -14
-5 -14 -10 0 -6 -3 -9 -7 -8 -11 4 -73 -22 -103 -42 -14 -10 -31 -15 -39 -12
-8 2 -11 0 -8 -6 4 -5 -12 -15 -38 -21 -25 -6 -45 -15 -45 -19 0 -8 -60 -36
-72 -33 -5 0 -8 -4 -8 -10 0 -6 -6 -9 -12 -7 -7 3 -54 -17 -105 -43 -50 -26
-94 -45 -97 -41 -3 3 -6 0 -6 -7 0 -7 -4 -10 -9 -7 -5 3 -14 -1 -21 -9 -7 -8
-19 -15 -27 -15 -8 0 -47 -16 -87 -35 -40 -19 -78 -35 -85 -35 -6 0 -11 -4
-11 -10 0 -5 -8 -10 -18 -10 -10 0 -22 -4 -27 -8 -6 -5 -26 -15 -45 -22 -19
-8 -52 -24 -72 -37 -20 -12 -48 -24 -61 -27 -14 -2 -40 -12 -58 -22 -19 -10
-36 -19 -39 -19 -3 -1 -57 -26 -120 -57 -63 -30 -126 -59 -140 -63 -14 -4 -44
-18 -67 -31 -23 -13 -49 -24 -57 -24 -9 0 -16 -5 -16 -11 0 -5 -4 -7 -10 -4
-5 3 -10 2 -10 -3 0 -6 -15 -13 -34 -16 -19 -4 -39 -13 -46 -21 -7 -8 -20 -15
-30 -15 -10 0 -23 -7 -30 -15 -7 -8 -20 -15 -29 -15 -9 0 -33 -9 -54 -20 -20
-11 -37 -17 -37 -13 0 5 -4 2 -8 -5 -5 -7 -19 -14 -31 -17 -13 -2 -29 -9 -35
-15 -7 -5 -16 -7 -19 -3 -4 3 -7 2 -7 -4 0 -10 -25 -21 -41 -19 -4 1 -16 -8
-28 -18 -12 -11 -21 -15 -21 -11 0 4 -9 0 -20 -10 -10 -9 -26 -15 -34 -12 -8
3 -16 3 -18 -1 -4 -10 -76 -42 -94 -42 -8 0 -12 -4 -9 -10 3 -5 -3 -10 -14
-10 -11 0 -27 -7 -35 -16 -9 -8 -16 -12 -16 -8 0 3 -7 1 -15 -6 -9 -7 -18 -10
-22 -6 -3 3 -15 -1 -25 -11 -10 -9 -18 -12 -18 -8 0 5 -7 0 -16 -11 -8 -10
-13 -13 -9 -6 3 6 1 12 -4 12 -6 0 -11 -4 -11 -8 0 -8 -52 -32 -85 -38 -10 -3
-22 -9 -25 -13 -3 -5 -18 -13 -33 -16 -15 -4 -27 -11 -27 -16 0 -5 -6 -9 -12
-9 -7 0 -40 -11 -73 -25 -45 -18 -71 -23 -105 -19 -25 3 -45 6 -46 7 -29 51
-104 170 -104 165 0 -3 16 -48 35 -99 19 -52 38 -108 41 -125 5 -29 5 -30 -38
-33 -23 -1 -46 -7 -50 -14 -4 -7 -8 -7 -8 -2 0 7 -3 7 -8 0 -10 -15 -114 -65
-134 -65 -9 0 -24 -7 -32 -16 -9 -8 -16 -12 -16 -9 0 4 -11 0 -25 -9 -14 -9
-25 -14 -25 -11 0 2 -10 1 -22 -4 -18 -6 -29 -3 -50 18 -15 14 -107 184 -206
376 -295 576 -485 905 -523 905 -16 0 -17 -32 -4 -82 8 -31 10 -57 4 -64 -4
-5 -31 -21 -59 -34 l-50 -23 37 -21 c43 -25 129 -134 177 -226 64 -122 102
-237 197 -590 29 -107 58 -217 66 -245 31 -113 5 -263 -45 -265 -7 0 -10 -4
-7 -10 3 -5 -3 -10 -15 -10 -12 0 -18 -4 -15 -10 3 -5 1 -11 -4 -11 -6 -1 -15
-3 -21 -4 -5 -1 -15 -3 -20 -4 -6 0 -9 -6 -8 -13 2 -7 -1 -12 -7 -13 -5 0 -16
-4 -24 -9 -11 -7 -12 -6 -6 5 7 11 6 12 -6 3 -16 -13 -14 -12 -121 -18 -56 -2
-78 0 -82 10 -3 8 -16 11 -36 7 -23 -3 -36 1 -47 14 -8 10 -11 11 -7 3 6 -12
4 -13 -7 -2 -7 6 -21 12 -31 12 -9 0 -21 6 -25 13 -8 12 -28 22 -85 46 -16 6
-28 15 -28 21 0 6 -4 8 -10 5 -5 -3 -10 -1 -10 5 0 7 -7 10 -15 6 -9 -3 -19 3
-25 14 -6 11 -16 19 -23 17 -7 -1 -11 3 -10 10 2 7 -3 10 -11 7 -9 -3 -17 3
-21 15 -3 12 -11 18 -17 15 -6 -4 -13 -3 -17 2 -8 12 -97 74 -106 74 -3 0 -11
5 -18 10 -52 44 -65 53 -85 61 -13 5 -21 13 -18 18 3 5 -4 11 -15 14 -13 4
-18 10 -13 18 4 7 3 10 -4 5 -6 -3 -19 5 -30 19 -11 13 -22 22 -25 19 -3 -3
-10 4 -17 15 -6 12 -16 18 -22 15 -6 -4 -8 -3 -5 3 4 6 0 16 -8 23 -8 7 -15
10 -15 6 0 -3 -9 2 -20 12 -12 9 -23 16 -26 14 -2 -1 -12 4 -20 13 -9 8 -20
13 -25 10 -5 -4 -9 -1 -9 4 0 6 -9 11 -20 11 -11 0 -23 7 -26 15 -4 8 -11 15
-16 15 -22 0 -67 60 -81 106 -13 46 -18 51 -78 81 -179 89 -207 98 -314 98
-191 0 -298 -56 -385 -200 l-25 -40 28 18 c37 24 115 32 161 17 39 -12 407
-249 504 -323 31 -24 127 -87 212 -139 230 -141 754 -483 840 -548 75 -58 197
-178 218 -215 12 -23 -2 -35 267 226 149 144 216 200 328 274 l58 39 40 -47
c27 -31 48 -47 64 -47 13 0 111 43 217 96 106 52 222 108 258 123 36 16 1003
486 2150 1046 1147 560 2335 1139 2640 1288 305 148 578 285 606 303 72 45 98
102 99 209 0 44 -4 97 -8 118 -8 39 -19 43 -84 30z"/>
<path d="M9334 9424 c-62 -71 -91 -128 -121 -234 -31 -115 -30 -174 5 -241 34
-66 74 -89 152 -89 97 0 195 65 246 163 l15 28 -42 -31 c-67 -48 -145 -37
-223 31 -97 85 -97 114 -2 362 14 37 24 67 22 67 -2 0 -26 -25 -52 -56z"/>
</g>
</svg>
